HIERARCHY
ROOT Hips
{
  OFFSET 52.3495 97.2119 32.6344
  CHANNELS 6 Xposition Yposition Zposition Zrotation Xrotation Yrotation
  JOINT spine
  {
    OFFSET 0 7.96568 0.458067
    CHANNELS 3 Zrotation Xrotation Yrotation
    JOINT spine1
    {
      OFFSET 0 10.2431 0
      CHANNELS 3 Zrotation Xrotation Yrotation
      JOINT spine2
      {
        OFFSET 0 9.81475 0
        CHANNELS 3 Zrotation Xrotation Yrotation
        JOINT Neck
        {
          OFFSET 0 25.1986 1.20138
          CHANNELS 3 Zrotation Xrotation Yrotation
          JOINT Head
          {
            OFFSET 0 7.61315 0
            CHANNELS 3 Zrotation Xrotation Yrotation
            End Site
            {
              OFFSET 0 18.4281 -6.07733
            }
          }
        }
        JOINT RightShoulder
        {
          OFFSET -4.1327 10.5992 -0.575451
          CHANNELS 3 Zrotation Xrotation Yrotation
          JOINT RightArm
          {
            OFFSET 0 13.9018 0
            CHANNELS 3 Zrotation Xrotation Yrotation
            JOINT RightArmRoll
            {
              OFFSET 0 7.01788 0
              CHANNELS 3 Zrotation Xrotation Yrotation
              JOINT RightForeArm
              {
                OFFSET 0 20.4406 0
                CHANNELS 3 Zrotation Xrotation Yrotation
                JOINT RightForeArmRoll
                {
                  OFFSET 0 7.87516 0
                  CHANNELS 3 Zrotation Xrotation Yrotation
                  JOINT RightHand
                  {
                    OFFSET 0 15.8037 0
                    CHANNELS 3 Zrotation Xrotation Yrotation
                    End Site
                    {
                      OFFSET 0 0 0
                    }
                  }
                }
              }
            }
          }
        }
        JOINT LeftShoulder
        {
          OFFSET 4.1327 10.5992 -0.575451
          CHANNELS 3 Zrotation Xrotation Yrotation
          JOINT LeftArm
          {
            OFFSET 0 13.9018 0
            CHANNELS 3 Zrotation Xrotation Yrotation
            JOINT LeftArmRoll
            {
              OFFSET 0 7.01789 0
              CHANNELS 3 Zrotation Xrotation Yrotation
              JOINT LeftForeArm
              {
                OFFSET 0 20.4406 0
                CHANNELS 3 Zrotation Xrotation Yrotation
                JOINT LeftForeArmRoll
                {
                  OFFSET 0 7.87515 0
                  CHANNELS 3 Zrotation Xrotation Yrotation
                  JOINT LeftHand
                  {
                    OFFSET 0 15.8037 0
                    CHANNELS 3 Zrotation Xrotation Yrotation
                    End Site
                    {
                      OFFSET 0 0 0
                    }
                  }
                }
              }
            }
          }
        }
      }
    }
  }
  JOINT RightUpLeg
  {
    OFFSET -7.06048 -1.2947 -1.0861
    CHANNELS 3 Zrotation Xrotation Yrotation
    JOINT RightUpLegRoll
    {
      OFFSET 0 18.5308 0
      CHANNELS 3 Zrotation Xrotation Yrotation
      JOINT RightLeg
      {
        OFFSET 0 -22.9476 0
        CHANNELS 3 Zrotation Xrotation Yrotation
        JOINT RightLegRoll
        {
          OFFSET 0 23.0226 0
          CHANNELS 3 Zrotation Xrotation Yrotation
          JOINT RightFoot
          {
            OFFSET 0 19.1625 0
            CHANNELS 3 Zrotation Xrotation Yrotation
            JOINT RightToeBase
            {
              OFFSET 0 16.0188 0
              CHANNELS 3 Zrotation Xrotation Yrotation
              End Site
              {
                OFFSET 0.00678979 7.75781 -0.894207
              }
            }
          }
        }
      }
    }
  }
  JOINT LeftUpLeg
  {
    OFFSET 7.06048 -1.2947 -1.0861
    CHANNELS 3 Zrotation Xrotation Yrotation
    JOINT LeftUpLegRoll
    {
      OFFSET 0 18.5309 0
      CHANNELS 3 Zrotation Xrotation Yrotation
      JOINT LeftLeg
      {
        OFFSET 0 22.9475 0
        CHANNELS 3 Zrotation Xrotation Yrotation
        JOINT LeftLegRoll
        {
          OFFSET 0 23.2355 0
          CHANNELS 3 Zrotation Xrotation Yrotation
          JOINT LeftFoot
          {
            OFFSET 0 18.9496 0
            CHANNELS 3 Zrotation Xrotation Yrotation
            JOINT LeftToeBase
            {
              OFFSET 0 16.0188 0
              CHANNELS 3 Zrotation Xrotation Yrotation
              End Site
              {
                OFFSET -0.0304289 7.75781 -0.894207
              }
            }
          }
        }
      }
    }
  }
}
MOTION
Frames: 7
Frame Time: 0.00208333
51.8645 81.9688 13.6823 1.03378 21.4507 -1.13356 0.0287965 3.00023 -0.272342 0.0807897 10.0031 -0.543681 0.0877067 11.6482 -0.546366 -21.2774 -39.0491 -8.73745 17.7252 24.8191 -6.15033 51.1136 -5.08161 -2.63664 137.21 41.0639 -34.5187 -1.12119e-005 -2.32001e-006 7.33796e-007 15.1677 27.2731 -5.20175 4.02464e-006 1.42892e-005 -2.99999 8.02904 -4.95101 0.697506 -61.5924 -13.8675 8.55225 -122.611 39.0341 40.9104 -3.06397e-006 -1.18061e-006 -1.59798e-006 -24.6453 44.5732 12.4713 4.20957e-006 -1.07625e-005 2.99998 -8.02905 -4.95108 -0.69755 170.652 66.9859 6.87457 180 1.5257e-005 179.112 -179.262 63.8884 177.479 -7.68121e-007 -5.91167e-006 1.56963 -27.8942 75.7893 29.5569 8.16937 27.1973 -0.843289 -162.172 68.4718 -15.4565 4.47153e-006 -3.51245e-005 -0.812407 -2.93644 -60.2959 -0.125556 1.72843e-006 -3.53176e-006 -1.20266 19.7887 69.2723 -20.6567 -8.14971 27.6837 0.221557 
51.8678 82.1732 13.7485 1.01125 21.3509 -1.15139 0.0281758 2.98394 -0.272478 0.0811433 9.97051 -0.544893 0.0880748 11.6156 -0.547584 -21.128 -38.9915 -8.63694 17.6067 24.9034 -6.0991 51.1786 -5.0274 -2.60244 137.366 41.2218 -34.5235 -1.12119e-005 -2.32001e-006 7.33796e-007 15.0988 26.4754 -5.03899 4.02464e-006 1.42892e-005 -2.99999 8.02904 -4.95101 0.697506 -61.6442 -13.8212 8.52227 -122.668 39.124 40.7921 -3.06397e-006 -1.18061e-006 -1.59798e-006 -24.5931 43.9665 12.239 4.20957e-006 -1.07625e-005 2.99998 -8.02905 -4.95108 -0.69755 170.909 66.5505 6.59913 180 1.5257e-005 179.114 -179.327 63.419 177.531 -7.68121e-007 -5.91167e-006 1.54979 -27.6693 75.6692 29.3164 8.16917 27.2018 -0.837196 -162.53 68.0486 -15.046 4.47153e-006 -3.51245e-005 -0.812243 -2.9225 -59.8407 -0.109679 1.72843e-006 -3.53176e-006 -1.18489 19.7078 69.1748 -20.5661 -8.14902 27.6888 0.214709 
51.8675 82.3788 13.8331 0.988606 21.2508 -1.16847 0.0276488 2.96751 -0.272702 0.0817563 9.93764 -0.546383 0.0887066 11.5827 -0.549083 -20.9752 -38.9336 -8.53383 17.4838 24.991 -6.04581 51.2454 -4.97333 -2.56852 137.517 41.3753 -34.5294 -1.12119e-005 -2.32001e-006 7.33796e-007 15.0322 25.685 -4.87948 4.02464e-006 1.42892e-005 -2.99999 8.02904 -4.95101 0.697506 -61.7032 -13.7737 8.49126 -122.714 39.216 40.6743 -3.06397e-006 -1.18061e-006 -1.59798e-006 -24.5434 43.3596 12.0095 4.20957e-006 -1.07625e-005 2.99998 -8.02905 -4.95108 -0.69755 171.155 66.1134 6.33546 180 1.5257e-005 179.115 -179.389 62.9477 177.58 -7.68121e-007 -5.91167e-006 1.53002 -27.4467 75.5481 29.0783 8.16897 27.2063 -0.831126 -162.877 67.6237 -14.6462 4.47153e-006 -3.51245e-005 -0.812121 -2.90739 -59.3832 -0.0932607 1.72843e-006 -3.53176e-006 -1.16715 19.6271 69.0767 -20.4757 -8.14833 27.6934 0.208532 
51.8733 82.5821 13.9124 0.965952 21.1504 -1.18488 0.027212 2.95095 -0.273023 0.0825749 9.90452 -0.548131 0.0895476 11.5496 -0.550846 -20.82 -38.8757 -8.42894 17.3577 25.0818 -5.99108 51.3133 -4.91973 -2.53506 137.663 41.5237 -34.536 -1.12119e-005 -2.32001e-006 7.33796e-007 14.9684 24.9038 -4.72361 4.02464e-006 1.42892e-005 -2.99999 8.02904 -4.95101 0.697506 -61.7674 -13.7255 8.45962 -122.754 39.3094 40.5575 -3.06397e-006 -1.18061e-006 -1.59798e-006 -24.4959 42.7523 11.7825 4.20957e-006 -1.07625e-005 2.99998 -8.02905 -4.95108 -0.69755 171.389 65.6746 6.08306 180 1.5257e-005 179.116 -179.448 62.4748 177.628 -7.68121e-007 -5.91167e-006 1.51031 -27.2267 75.4261 28.8428 8.16876 27.2108 -0.825102 -163.214 67.1971 -14.2566 4.47153e-006 -3.51245e-005 -0.812033 -2.89123 -58.9239 -0.0764378 1.72843e-006 -3.53176e-006 -1.14948 19.5471 68.9785 -20.3861 -8.1477 27.6969 0.203805 
51.8726 82.7836 13.9937 0.943392 21.0495 -1.20068 0.026862 2.93431 -0.273447 0.0835451 9.87122 -0.550123 0.0905439 11.5163 -0.552855 -20.6636 -38.8176 -8.32304 17.2295 25.1756 -5.93554 51.3818 -4.86695 -2.50228 137.806 41.6668 -34.5433 -1.12119e-005 -2.32001e-006 7.33796e-007 14.9079 24.1335 -4.57176 4.02464e-006 1.42892e-005 -2.99999 8.02904 -4.95101 0.697506 -61.8353 -13.6771 8.42777 -122.789 39.4038 40.4421 -3.06397e-006 -1.18061e-006 -1.59798e-006 -24.45 42.1442 11.5578 4.20957e-006 -1.07625e-005 2.99998 -8.02905 -4.95108 -0.69755 171.613 65.2343 5.84132 180 1.5257e-005 179.118 -179.506 62.0007 177.673 -7.68121e-007 -5.91167e-006 1.49067 -27.0091 75.3033 28.6098 8.16854 27.2152 -0.819148 -163.541 66.7689 -13.8765 4.47153e-006 -3.51245e-005 -0.811971 -2.87411 -58.4629 -0.0593411 1.72843e-006 -3.53176e-006 -1.13191 19.4683 68.8809 -20.2979 -8.14717 27.6987 0.201303 
51.8714 83.0041 14.0728 0.921027 20.9482 -1.21595 0.0265955 2.9176 -0.273982 0.0846133 9.83781 -0.55234 0.0916411 11.4829 -0.555091 -20.5069 -38.7597 -8.21692 17.1005 25.2722 -5.8798 51.4501 -4.81533 -2.47036 137.944 41.804 -34.5512 -1.12119e-005 -2.32001e-006 7.33796e-007 14.8511 23.3761 -4.42427 4.02464e-006 1.42892e-005 -2.99999 8.02904 -4.95101 0.697506 -61.9051 -13.6292 8.39613 -122.821 39.4988 40.3287 -3.06397e-006 -1.18061e-006 -1.59798e-006 -24.4053 41.5351 11.3352 4.20957e-006 -1.07625e-005 2.99998 -8.02905 -4.95108 -0.69755 171.827 64.7928 5.60983 180 1.5257e-005 179.119 -179.561 61.5254 177.717 -7.68121e-007 -5.91167e-006 1.4711 -26.7942 75.1798 28.3795 8.16833 27.2196 -0.813285 -163.859 66.3393 -13.5058 4.47153e-006 -3.51245e-005 -0.811925 -2.85612 -58.0006 -0.0420934 1.72843e-006 -3.53176e-006 -1.11449 19.3912 68.7844 -20.2115 -8.14677 27.6983 0.201804 
51.874 83.2028 14.1562 0.89896 20.8463 -1.23073 0.0264089 2.90087 -0.274637 0.0857259 9.80435 -0.554766 0.0927853 11.4494 -0.557538 -20.351 -38.7019 -8.11137 16.9719 25.3716 -5.82449 51.5178 -4.7652 -2.43952 138.078 41.9349 -34.5593 -1.12119e-005 -2.32001e-006 7.33796e-007 14.7984 22.6335 -4.28149 4.02464e-006 1.42892e-005 -2.99999 8.02904 -4.95101 0.697506 -61.9751 -13.5823 8.36513 -122.855 39.5939 40.2179 -3.06397e-006 -1.18061e-006 -1.59798e-006 -24.3614 40.9247 11.1145 4.20957e-006 -1.07625e-005 2.99998 -8.02905 -4.95108 -0.69755 172.031 64.3502 5.38805 180 1.5257e-005 179.121 -179.613 61.0494 177.759 -7.68121e-007 -5.91167e-006 1.45161 -26.582 75.0556 28.152 8.16812 27.2238 -0.807538 -164.169 65.9084 -13.1439 4.47153e-006 -3.51245e-005 -0.811889 -2.83737 -57.5373 -0.0248105 1.72843e-006 -3.53176e-006 -1.09724 19.3161 68.6897 -20.1275 -8.14657 27.6951 0.206084 
